[Header]
FileType HTR
DataType HTRS
FileVersion 1
NumSegments 64
NumFrames 3
DataFrameRate 24
EulerRotationOrder ZYX
CalibrationUnits mm
RotationUnits Degrees
GlobalAxisofGravity Y
BoneLengthAxis Y
ScaleFactor 1.0
[SegmentNames&Hierarchy]
Hips	GLOBAL
Spine	Hips
Spine1	Spine
Spine2	Spine1
Neck	Spine2
Head	Neck
LeftEye	Head
RightEye	Head
LeftShoulder	Spine2
LeftArm	LeftShoulder
LeftForeArm	LeftArm
LeftHand	LeftForeArm
LeftHandThumb1	LeftHand
LeftHandThumb2	LeftHandThumb1
LeftHandThumb3	LeftHandThumb2
LeftHandThumb4	LeftHandThumb3
LeftHandIndex1	LeftHand
LeftHandIndex2	LeftHandIndex1
LeftHandIndex3	LeftHandIndex2
LeftHandIndex4	LeftHandIndex3
LeftHandMiddle1	LeftHand
LeftHandMiddle2	LeftHandMiddle1
LeftHandMiddle3	LeftHandMiddle2
LeftHandMiddle4	LeftHandMiddle3
LeftHandRing1	LeftHand
LeftHandRing2	LeftHandRing1
LeftHandRing3	LeftHandRing2
LeftHandRing4	LeftHandRing3
LeftHandPinky1	LeftHand
LeftHandPinky2	LeftHandPinky1
LeftHandPinky3	LeftHandPinky2
LeftHandPinky4	LeftHandPinky3
RightShoulder	Spine2
RightArm	RightShoulder
RightForeArm	RightArm
RightHand	RightForeArm
RightHandPinky1	RightHand
RightHandPinky2	RightHandPinky1
RightHandPinky3	RightHandPinky2
RightHandPinky4	RightHandPinky3
RightHandRing1	RightHand
RightHandRing2	RightHandRing1
RightHandRing3	RightHandRing2
RightHandRing4	RightHandRing3
RightHandMiddle1	RightHand
RightHandMiddle2	RightHandMiddle1
RightHandMiddle3	RightHandMiddle2
RightHandMiddle4	RightHandMiddle3
RightHandIndex1	RightHand
RightHandIndex2	RightHandIndex1
RightHandIndex3	RightHandIndex2
RightHandIndex4	RightHandIndex3
RightHandThumb1	RightHand
RightHandThumb2	RightHandThumb1
RightHandThumb3	RightHandThumb2
RightHandThumb4	RightHandThumb3
LeftUpLeg	Hips
LeftLeg	LeftUpLeg
LeftFoot	LeftLeg
LeftToeBase	LeftFoot
RightUpLeg	Hips
RightLeg	RightUpLeg
RightFoot	RightLeg
RightToeBase	RightFoot
[BasePosition]
Hips	0	0	0	0	0	0	1
Spine	0	0	0	0	0	0	1
Spine1	0	0	0	0	0	0	1
Spine2	0	0	0	0	0	0	1
Neck	0	0	0	0	0	0	1
Head	0	0	0	0	0	0	1
LeftEye	0	0	0	0	0	0	1
RightEye	0	0	0	0	0	0	1
LeftShoulder	0	0	0	0	0	0	1
LeftArm	0	0	0	0	0	0	1
LeftForeArm	0	0	0	0	0	0	1
LeftHand	0	0	0	0	0	0	1
LeftHandThumb1	0	0	0	0	0	0	1
LeftHandThumb2	0	0	0	0	0	0	1
LeftHandThumb3	0	0	0	0	0	0	1
LeftHandThumb4	0	0	0	0	0	0	1
LeftHandIndex1	0	0	0	0	0	0	1
LeftHandIndex2	0	0	0	0	0	0	1
LeftHandIndex3	0	0	0	0	0	0	1
LeftHandIndex4	0	0	0	0	0	0	1
LeftHandMiddle1	0	0	0	0	0	0	1
LeftHandMiddle2	0	0	0	0	0	0	1
LeftHandMiddle3	0	0	0	0	0	0	1
LeftHandMiddle4	0	0	0	0	0	0	1
LeftHandRing1	0	0	0	0	0	0	1
LeftHandRing2	0	0	0	0	0	0	1
LeftHandRing3	0	0	0	0	0	0	1
LeftHandRing4	0	0	0	0	0	0	1
LeftHandPinky1	0	0	0	0	0	0	1
LeftHandPinky2	0	0	0	0	0	0	1
LeftHandPinky3	0	0	0	0	0	0	1
LeftHandPinky4	0	0	0	0	0	0	1
RightShoulder	0	0	0	0	0	0	1
RightArm	0	0	0	0	0	0	1
RightForeArm	0	0	0	0	0	0	1
RightHand	0	0	0	0	0	0	1
RightHandPinky1	0	0	0	0	0	0	1
RightHandPinky2	0	0	0	0	0	0	1
RightHandPinky3	0	0	0	0	0	0	1
RightHandPinky4	0	0	0	0	0	0	1
RightHandRing1	0	0	0	0	0	0	1
RightHandRing2	0	0	0	0	0	0	1
RightHandRing3	0	0	0	0	0	0	1
RightHandRing4	0	0	0	0	0	0	1
RightHandMiddle1	0	0	0	0	0	0	1
RightHandMiddle2	0	0	0	0	0	0	1
RightHandMiddle3	0	0	0	0	0	0	1
RightHandMiddle4	0	0	0	0	0	0	1
RightHandIndex1	0	0	0	0	0	0	1
RightHandIndex2	0	0	0	0	0	0	1
RightHandIndex3	0	0	0	0	0	0	1
RightHandIndex4	0	0	0	0	0	0	1
RightHandThumb1	0	0	0	0	0	0	1
RightHandThumb2	0	0	0	0	0	0	1
RightHandThumb3	0	0	0	0	0	0	1
RightHandThumb4	0	0	0	0	0	0	1
LeftUpLeg	0	0	0	0	0	0	1
LeftLeg	0	0	0	0	0	0	1
LeftFoot	0	0	0	0	0	0	1
LeftToeBase	0	0	0	0	0	0	1
RightUpLeg	0	0	0	0	0	0	1
RightLeg	0	0	0	0	0	0	1
RightFoot	0	0	0	0	0	0	1
RightToeBase	0	0	0	0	0	0	1
[Hips]
34	32.63511276	889.2852173	43.32423401	4.113754749	17.47236252	-11.09718323	1.0
35	22.3190136	862.5447998	25.33816338	6.326014042	18.49323273	-10.88388348	1.0
36	15.31111336	866.5228271	7.776950836	7.544427872	17.1274662	-9.616483688	1.0
[Spine]
34	0	101.8159943	1.315000057	7.191476822	4.231114388	2.607984066	1.0
35	0	101.8159943	1.315000057	7.5633955	5.229335308	2.267216921	1.0
36	0	101.8159943	1.315000057	7.628423691	5.900650024	1.876976132	1.0
[Spine1]
34	0	100.8349991	-10.00800037	2.864971876	2.391849279	1.187353373	1.0
35	0	100.8349991	-10.00800037	2.884483099	2.465568304	1.069386363	1.0
36	0	100.8349991	-10.00800037	2.843941927	2.372585297	0.9916648269	1.0
[Spine2]
34	0	91	-13.73399925	2.848656178	2.401185513	1.14146018	1.0
35	0	91	-13.73399925	2.849199295	2.49728179	1.033674479	1.0
36	0	91	-13.73399925	2.805449486	2.407236576	0.9725625515	1.0
[Neck]
34	0	166.7169952	-25.16200066	8.794766426	-4.207988262	0.02070686035	1.0
35	0	166.7169952	-25.16200066	6.715684414	-4.526383877	-0.9776775241	1.0
36	0	166.7169952	-25.16200066	5.940877914	-4.291327477	-1.710316062	1.0
[Head]
34	0	96.17900085	16.84999847	-22.11587334	-18.13865089	22.01010513	1.0
35	0	96.17900085	16.84999847	-23.76897049	-19.88756752	21.96828842	1.0
36	0	96.17900085	16.84999847	-22.05235672	-20.11004829	19.64453506	1.0
[LeftEye]
34	30.6760006	64.09500122	92.83599854	0	0	0	1.0
35	30.6760006	64.09500122	92.83599854	0	0	0	1.0
36	30.6760006	64.09500122	92.83599854	0	0	0	1.0
[RightEye]
34	-30.6760006	64.09500122	92.83499908	0	0	0	1.0
35	-30.6760006	64.09500122	92.83499908	0	0	0	1.0
36	-30.6760006	64.09500122	92.83499908	0	0	0	1.0
[LeftShoulder]
34	45.70400238	109.4599991	-26.28000069	3.139527082	-1.836805582	0.6872732043	1.0
35	45.70400238	109.4599991	-26.28000069	3.822739601	-8.017817497	-8.28842926	1.0
36	45.70400238	109.4599991	-26.28000069	4.809439659	-12.49166775	-14.14847183	1.0
[LeftArm]
34	105.923996	-5.24600029	-22.32099915	-12.22873592	9.495279312	-40.7881012	1.0
35	105.923996	-5.24600029	-22.32099915	-15.9746933	0.6972723007	-46.70607758	1.0
36	105.923996	-5.24600029	-22.32099915	-8.41480732	-8.545712471	-50.39596939	1.0
[LeftForeArm]
34	278.414978	-0.0009999999311	0	5.344935562e-05	-85.31756592	-0.0002382437524	1.0
35	278.414978	-0.0009999999311	0	1.156829171e-06	-65.05958557	-0.0002031460172	1.0
36	278.414978	-0.0009999999311	0	2.091578835e-06	-43.13943481	-0.0002181603923	1.0
[LeftHand]
34	283.2879944	0	0	-37.35713959	-6.368485928	32.67171478	1.0
35	283.2879944	0	0	-49.72164536	6.704464436	28.74539948	1.0
36	283.2879944	0	0	-65.20363617	19.44106674	20.08539391	1.0
[LeftHandThumb1]
34	24.6609993	-15.75	26.8239994	-0.4281124175	2.359251738	4.872708321	1.0
35	24.6609993	-15.75	26.8239994	-0.4805260003	2.222297192	4.825191498	1.0
36	24.6609993	-15.75	26.8239994	-0.5089826584	2.149714708	4.80099678	1.0
[LeftHandThumb2]
34	32.29800034	-18.64699936	18.64699936	6.362957478	22.84126282	16.39633751	1.0
35	32.29800034	-18.64699936	18.64699936	7.22023201	23.35975456	18.14483643	1.0
36	32.29800034	-18.64699936	18.64699936	14.3261919	27.07320595	21.33084679	1.0
[LeftHandThumb3]
34	26.52600098	-15.31499958	15.31499958	-11.58380318	13.55182362	8.761749268	1.0
35	26.52600098	-15.31499958	15.31499958	-11.97820282	12.30652618	8.637062073	1.0
36	26.52600098	-15.31499958	15.31499958	-12.75908184	8.238391876	8.330252647	1.0
[LeftHandThumb4]
34	19.54599953	-11.28499985	11.28499985	0	0	0	1.0
35	19.54599953	-11.28499985	11.28499985	0	0	0	1.0
36	19.54599953	-11.28499985	11.28499985	0	0	0	1.0
[LeftHandIndex1]
34	91.09299469	-5.170999527	22.60099792	0.7426569462	0.1881297231	-4.226784229	1.0
35	91.09299469	-5.170999527	22.60099792	0.5643923283	-0.7003715634	-3.80412674	1.0
36	91.09299469	-5.170999527	22.60099792	0.3596451283	0.3356619775	-11.17010403	1.0
[LeftHandIndex2]
34	36.76399994	0	0	-0.2836619914	1.798424363	-17.92486191	1.0
35	36.76399994	0	0	-0.2672046721	1.746783137	-17.39308739	1.0
36	36.76399994	0	0	-0.2625994384	1.731986284	-17.24092674	1.0
[LeftHandIndex3]
34	28.83100128	0	0	-0.06551816314	0.8726397753	-8.58632946	1.0
35	28.83100128	0	0	-0.05767035112	0.8190239072	-8.055012703	1.0
36	28.83100128	0	0	-0.05550914258	0.803647697	-7.902924538	1.0
[LeftHandIndex4]
34	23.92700005	0	0	0	0	0	1.0
35	23.92700005	0	0	0	0	0	1.0
36	23.92700005	0	0	0	0	0	1.0
[LeftHandMiddle1]
34	95.33399963	0	0	-0.1848550588	0.3407080472	-5.512232304	1.0
35	95.33399963	0	0	-0.195632264	1.173060656	-5.674464703	1.0
36	95.33399963	0	0	-0.5692754984	2.490767002	-12.25976372	1.0
[LeftHandMiddle2]
34	36.98199844	0	0	-0.2776788473	1.779841781	-17.73322105	1.0
35	36.98199844	0	0	-0.2567342222	1.712961316	-17.04559708	1.0
36	36.98199844	0	0	-0.2483400404	1.685419202	-16.76320076	1.0
[LeftHandMiddle3]
34	29.50900078	0	0	-0.3101836443	1.878438234	-18.75188255	1.0
35	29.50900078	0	0	-0.2877828181	1.811180592	-18.0563221	1.0
36	29.50900078	0	0	-0.2788202465	1.783408165	-17.76997757	1.0
[LeftHandMiddle4]
34	28.3390007	0	0	0	0	0	1.0
35	28.3390007	0	0	0	0	0	1.0
36	28.3390007	0	0	0	0	0	1.0
[LeftHandRing1]
34	91.04499817	-0.4390000105	-18.65100098	-0.669297874	2.603561401	-13.82304096	1.0
35	91.04499817	-0.4390000105	-18.65100098	-0.5947660804	2.460722446	-12.64818478	1.0
36	91.04499817	-0.4390000105	-18.65100098	-0.9010674953	2.888755083	-17.26659203	1.0
[LeftHandRing2]
34	31.54000092	0	0	-0.3921460509	2.10432291	-21.11006546	1.0
35	31.54000092	0	0	-0.3764932454	2.063324213	-20.67936897	1.0
36	31.54000092	0	0	-0.3871973157	2.091536045	-20.97548676	1.0
[LeftHandRing3]
34	29.37700081	0	0	-0.2879891694	1.811760306	-18.06227684	1.0
35	29.37700081	0	0	-0.2745759487	1.770156503	-17.63339996	1.0
36	29.37700081	0	0	-0.2838290632	1.798968792	-17.93027687	1.0
[LeftHandRing4]
34	26.47500038	0	0	0	0	0	1.0
35	26.47500038	0	0	0	0	0	1.0
36	26.47500038	0	0	0	0	0	1.0
[LeftHandPinky1]
34	80.77799988	-4.887000084	-38.06099701	-1.701588869	2.312931061	-26.09720612	1.0
35	80.77799988	-4.887000084	-38.06099701	-1.598573208	3.735780001	-25.46005821	1.0
36	80.77799988	-4.887000084	-38.06099701	-1.725757718	3.858297586	-26.9006176	1.0
[LeftHandPinky2]
34	36	0	0	-0.2818049192	1.792720675	-17.86577988	1.0
35	36	0	0	-0.2685945332	1.751148462	-17.43797112	1.0
36	36	0	0	-0.2786056399	1.782693863	-17.76286125	1.0
[LeftHandPinky3]
34	21.14200211	0	0	-0.2542538047	1.704979897	-16.96370316	1.0
35	21.14200211	0	0	-0.2417247444	1.663371801	-16.53740501	1.0
36	21.14200211	0	0	-0.2512710094	1.695090413	-16.86239624	1.0
[LeftHandPinky4]
34	19.75699997	0	0	0	0	0	1.0
35	19.75699997	0	0	0	0	0	1.0
36	19.75699997	0	0	0	0	0	1.0
[RightShoulder]
34	-45.70000076	109.4620056	-26.28000069	2.765409231	7.592368126	0.1176636517	1.0
35	-45.70000076	109.4620056	-26.28000069	3.797927618	9.868470192	8.187562943	1.0
36	-45.70000076	109.4620056	-26.28000069	4.557581425	13.9312067	12.28596497	1.0
[RightArm]
34	-105.9280014	-5.248000145	-22.32099915	-17.32777405	-11.55299282	38.04401398	1.0
35	-105.9280014	-5.248000145	-22.32099915	-11.3053894	4.826246738	37.52861023	1.0
36	-105.9280014	-5.248000145	-22.32099915	1.702317834	18.7234745	40.52902603	1.0
[RightForeArm]
34	-278.414978	0	0	3.55493853e-06	38.15179825	8.288819117e-06	1.0
35	-278.414978	0	0	-5.111585324e-06	23.14279747	-2.287584357e-05	1.0
36	-278.414978	0	0	7.248723364e-07	14.92326355	-6.521366345e-07	1.0
[RightHand]
34	-283.2879944	0	0.0009999999311	-24.07936859	-32.81463242	-28.19221497	1.0
35	-283.2879944	0	0.0009999999311	-42.45188141	-26.89346695	-15.61179924	1.0
36	-283.2879944	0	0.0009999999311	-51.5546608	-9.703718185	-5.009297371	1.0
[RightHandPinky1]
34	-80.76699829	-4.885000229	-38.06000137	-2.109193325	-5.219819546	19.76353645	1.0
35	-80.76699829	-4.885000229	-38.06000137	-1.229568243	-5.685565472	18.08390999	1.0
36	-80.76699829	-4.885000229	-38.06000137	-1.324142456	-4.756311417	20.66729546	1.0
[RightHandPinky2]
34	-36	0	0.0009999999311	-0.009958738461	-0.3038496971	3.773865461	1.0
35	-36	0	0.0009999999311	-0.007666102611	-0.2665819824	3.312818289	1.0
36	-36	0	0.0009999999311	-0.01778131537	-0.4058385491	5.036935806	1.0
[RightHandPinky3]
34	-21.14200211	0	0	-0.005712793674	-0.2301172614	2.842386484	1.0
35	-21.14200211	0	0	-0.004196259659	-0.1973700523	2.437585592	1.0
36	-21.14200211	0	0	-0.01216522511	-0.3357903361	4.149522305	1.0
[RightHandPinky4]
34	-19.75699997	0	0	0	0	0	1.0
35	-19.75699997	0	0	0	0	0	1.0
36	-19.75699997	0	0	0	0	0	1.0
[RightHandRing1]
34	-91.03599548	-0.4390000105	-18.65100098	-0.2064178288	-2.283861399	5.770177364	1.0
35	-91.03599548	-0.4390000105	-18.65100098	-0.1417807788	-2.7127707	4.421462059	1.0
36	-91.03599548	-0.4390000105	-18.65100098	-0.3073208332	-2.088317394	7.825912952	1.0
[RightHandRing2]
34	-31.54000092	0	0	-0.02893175371	-0.5173572302	6.401069641	1.0
35	-31.54000092	0	0	-0.02730010264	-0.5026354194	6.218230247	1.0
36	-31.54000092	0	0	-0.06005507335	-0.7441465855	9.2280159	1.0
[RightHandRing3]
34	-29.37700081	0	0	-0.008001523092	-0.2723489106	3.364527464	1.0
35	-29.37700081	0	0	-0.007102858275	-0.2566600442	3.170484543	1.0
36	-29.37700081	0	0	-0.02698247693	-0.4996818304	6.181518555	1.0
[RightHandRing4]
34	-26.47500038	0	0	0	0	0	1.0
35	-26.47500038	0	0	0	0	0	1.0
36	-26.47500038	0	0	0	0	0	1.0
[RightHandMiddle1]
34	-95.32500458	0	0	0.1212607771	-0.7005280256	-1.889665008	1.0
35	-95.32500458	0	0	0.1427737027	-1.080664635	-2.471331358	1.0
36	-95.32500458	0	0	0.006504412275	-1.128763199	1.04094851	1.0
[RightHandMiddle2]
34	-36.98199844	0	0	-0.1053149253	-0.9829946756	12.23042107	1.0
35	-36.98199844	0	0	-0.07792205364	-0.8468150496	10.51494026	1.0
36	-36.98199844	0	0	-0.1044275686	-0.9789061546	12.17881107	1.0
[RightHandMiddle3]
34	-29.50900078	0	0	-0.1236971542	-1.066269279	13.2593317	1.0
35	-29.50900078	0	0	-0.09359584749	-0.9292665124	11.52688885	1.0
36	-29.50900078	0	0	-0.12247435	-1.061057687	13.19315052	1.0
[RightHandMiddle4]
34	-28.3390007	0	0.0009999999311	0	0	0	1.0
35	-28.3390007	0	0.0009999999311	0	0	0	1.0
36	-28.3390007	0	0.0009999999311	0	0	0	1.0
[RightHandIndex1]
34	-91.08300018	-5.167999744	22.60099792	0.2226793915	9.923332214	-0.5789230466	1.0
35	-91.08300018	-5.167999744	22.60099792	0.280012399	7.662333012	-2.720770359	1.0
36	-91.08300018	-5.167999744	22.60099792	0.1965573877	6.146319866	-2.107227564	1.0
[RightHandIndex2]
34	-36.76399994	0	0	-0.01566008851	-0.3809188008	4.708359718	1.0
35	-36.76399994	0	0	-0.01775359549	-0.4056405127	5.014681816	1.0
36	-36.76399994	0	0	-0.03790962696	-0.5919184685	7.328402042	1.0
[RightHandIndex3]
34	-28.83100128	0	0	-0.009606965818	0.2984372079	-3.687206268	1.0
35	-28.83100128	0	0	-0.009731408209	0.3003030419	-3.710353136	1.0
36	-28.83100128	0	0	-0.0017138978	0.1264801919	-1.561854839	1.0
[RightHandIndex4]
34	-23.92700005	0	0	0	0	0	1.0
35	-23.92700005	0	0	0	0	0	1.0
36	-23.92700005	0	0	0	0	0	1.0
[RightHandThumb1]
34	-24.64799881	-15.72700024	26.82600021	-2.828717709	3.085065126	-3.180186033	1.0
35	-24.64799881	-15.72700024	26.82600021	-2.549211979	2.281001806	-3.418710947	1.0
36	-24.64799881	-15.72700024	26.82600021	-2.249814034	1.41729641	-3.6816082	1.0
[RightHandThumb2]
34	-32.29800034	-18.64699936	18.64699936	16.58947372	-3.182683468	-32.89715958	1.0
35	-32.29800034	-18.64699936	18.64699936	16.570158	-2.595152617	-36.47029114	1.0
36	-32.29800034	-18.64699936	18.64699936	16.88181114	-3.938497543	-37.24199295	1.0
[RightHandThumb3]
34	-26.52600098	-15.31399918	15.31399918	-24.54176903	12.57766056	-33.18652344	1.0
35	-26.52600098	-15.31399918	15.31399918	-25.00668335	14.01078224	-31.68611908	1.0
36	-26.52600098	-15.31399918	15.31399918	-22.58870697	9.384102821	-27.94660187	1.0
[RightHandThumb4]
34	-19.54599953	-11.28499985	11.28499985	0	0	0	1.0
35	-19.54599953	-11.28499985	11.28499985	0	0	0	1.0
36	-19.54599953	-11.28499985	11.28499985	0	0	0	1.0
[LeftUpLeg]
34	82.07800293	-67.51699829	-15.99599934	-49.94734573	11.58308887	9.293054581	1.0
35	82.07800293	-67.51699829	-15.99599934	-57.08013153	13.63395214	8.868650436	1.0
36	82.07800293	-67.51699829	-15.99599934	-58.03735733	15.2853756	7.382407665	1.0
[LeftLeg]
34	0	-443.7049866	2.845999956	65.69836426	-7.183357716	-6.1023736	1.0
35	0	-443.7049866	2.845999956	70.424263	-5.285927773	-7.937234879	1.0
36	0	-443.7049866	2.845999956	68.43451691	-4.911380291	-8.644536018	1.0
[LeftFoot]
34	0	-444.2789917	-29.8219986	-22.97340584	-4.516579151	1.488204122	1.0
35	0	-444.2789917	-29.8219986	-22.79426956	-6.500825405	3.667393684	1.0
36	0	-444.2789917	-29.8219986	-20.43501282	-6.476516247	3.976067543	1.0
[LeftToeBase]
34	0	-87.28699493	107.1060028	-4.928524017	9.079761185e-06	4.043124022e-07	1.0
35	0	-87.28699493	107.1060028	-4.928529263	4.990286925e-06	1.666819344e-06	1.0
36	0	-87.28699493	107.1060028	-4.92852211	-3.322214752e-06	4.244752105e-08	1.0
[RightUpLeg]
34	-82.07800293	-67.51699829	-15.99599934	-33.61394501	-11.73267269	8.828974724	1.0
35	-82.07800293	-67.51699829	-15.99599934	-38.49871826	-11.26298809	10.12713623	1.0
36	-82.07800293	-67.51699829	-15.99599934	-40.72802734	-11.92585754	9.420743942	1.0
[RightLeg]
34	0	-443.7049866	2.861999989	62.84618759	-7.32092905	-8.844989777	1.0
35	0	-443.7049866	2.861999989	65.98343658	-6.305491447	-7.997371197	1.0
36	0	-443.7049866	2.861999989	65.98074341	-6.470769405	-7.732607841	1.0
[RightFoot]
34	0	-444.2770081	-29.83799934	-28.12681007	-13.09490681	17.07251549	1.0
35	0	-444.2770081	-29.83799934	-36.99095535	-14.95525265	18.43394852	1.0
36	0	-444.2770081	-29.83799934	-35.3773613	-14.47948742	16.47739601	1.0
[RightToeBase]
34	0	-87.28699493	107.1060028	-12.90572357	1.079664435e-05	1.351921469e-06	1.0
35	0	-87.28699493	107.1060028	-8.03356266	1.674910527e-05	-4.903995887e-06	1.0
36	0	-87.28699493	107.1060028	-7.28288126	-7.790106338e-08	1.285074973e-06	1.0
[EndOfFile]
